# xmcd CD database file
# Copyright (C) 1997 Ti Kan
# 
# Track frame offsets:
#     150
#     16815
#     36615
#     56778
#     79458
#     96678
#     111084
#     127971
#     146964
#     166908
#     182232
#     196827
#     221622
#     236148
# 
# Disc length: 3395 seconds
# 
# Revision: 1
# Processed by: cddbd v1.4b41PL1 Copyright (c) Steve Scherf et al.
# Submitted via: DiscPlay 4.0.3
# 
DISCID=d60d410e
DTITLE=Pat Boyack - Super Blue and Funky
DYEAR=1900
DGENRE=
TTITLE0=For You My Love
TTITLE1=I'll Be The Joker
TTITLE2=Longwallin'
TTITLE3=Why Must I Suffer
TTITLE4=Mexican Vodka
TTITLE5=Louisiana Love Shack
TTITLE6=Can't You See
TTITLE7=Sweet Redemption
TTITLE8=Think (Before You Do)
TTITLE9=Ol' Blondie Swings Again
TTITLE10=The Way You Do
TTITLE11=Righteous Love
TTITLE12=Poppa Stoppa
TTITLE13=Look At Me, Look At You
EXTD=
EXTT0=
EXTT1=
EXTT2=
EXTT3=
EXTT4=
EXTT5=
EXTT6=
EXTT7=
EXTT8=
EXTT9=
EXTT10=
EXTT11=
EXTT12=
EXTT13=
PLAYORDER=
